<?xml version="1.0" encoding="utf-8"?>
<!-- Generator: Adobe Illustrator 18.0.0, SVG Export Plug-In . SVG Version: 6.00 Build 0)  -->
<!DOCTYPE svg PUBLIC "-//W3C//DTD SVG 1.1//EN" "http://www.w3.org/Graphics/SVG/1.1/DTD/svg11.dtd">
<svg version="1.1" id="Layer_1" xmlns="http://www.w3.org/2000/svg" xmlns:xlink="http://www.w3.org/1999/xlink" x="0px" y="0px"
	 viewBox="0 0 558.1 571" enable-background="new 0 0 558.1 571" xml:space="preserve">
<g>
	<g>
		<path fill="#21224A" d="M112.1,296.8c0-5.1,1.4-9.5,4.1-13.3c2.7-3.8,6.3-6.7,10.8-8.8c4.5-2,9.3-3,14.3-3c3,0,6.3,0.4,9.7,1
			c3.4,0.7,6.4,1.8,8.9,3.5c2.5,1.7,3.8,3.9,3.8,6.7c0,2.5-0.8,4.6-2.4,6.3c-1.6,1.7-3.6,2.6-6.1,2.6c-1.1,0-2-0.1-2.8-0.4l-3.4-1.2
			c-2.9-1-5.7-1.6-8.3-1.6c-2.3,0-4.4,0.5-6.3,1.7c-1.9,1.1-2.9,2.7-2.9,4.8c0,3.2,2.4,5.5,7.4,6.8l4.9,1.3
			c7.7,2.1,13.9,4.9,18.4,8.5c4.5,3.5,6.7,8.7,6.7,15.4c0,8.2-2.4,14.6-6.9,19.3c-2.7,2.9-6.2,5-10.3,6.3c-4.1,1.3-8.4,2-12.9,1.9
			c-8.2-0.1-15.2-1.5-21-4.3c-2-1-3.7-2.3-4.9-4c-1.2-1.7-1.9-3.6-1.8-5.7c0-2.1,0.8-4,2.4-5.6c1.6-1.7,3.5-2.5,5.6-2.5
			c1.8,0,3.4,0.3,4.7,0.9l6.3,2.4c3.1,1.2,6.1,1.8,9,1.9c2.6,0,5-0.7,7-2.1c2.1-1.4,3.1-3.4,3.1-6c0-2.6-1-4.5-3-5.8
			c-1.6-1-3.2-1.8-4.8-2.3c-1.6-0.5-4.2-1.3-8-2.5c-4.9-1.4-8.8-2.9-11.8-4.5c-3-1.6-5.3-3.8-7.1-6.6
			C113,305.1,112.1,301.4,112.1,296.8z"/>
		<path fill="#21224A" d="M236.4,327.1l8.4-27.6c0.6-1.9,1.5-3.5,2.9-4.9c1.3-1.4,2.9-2,4.6-2c2.7,0,5.1,0.6,7.2,1.8
			c2,1.2,3,2.9,3,5.1c0,1.9-0.3,3.8-0.7,5.6l-13.3,36.8c-1.3,3.7-2.9,6.7-4.7,8.9c-1.8,2.2-4.3,3.3-7.5,3.3c-4.7,0-8.1-3.1-10.2-9.3
			l-7.4-21.8l-6.3,18.7c-1.2,3.8-2.7,6.8-4.5,9c-1.8,2.2-4.4,3.3-7.8,3.2c-2.4,0-4.5-0.9-6.3-2.7c-1.7-1.8-3-4-3.9-6.6l-13.9-40.2
			c-0.5-1.7-0.7-3.5-0.7-5.5c0-2.2,1.1-3.8,3.1-5c2.1-1.1,4.4-1.7,7-1.7c1.7,0,3.2,0.7,4.5,2.1c1.3,1.4,2.3,3,2.8,4.8l8.2,27.9
			l8.8-26.9c1.7-5.2,4.6-7.8,8.7-7.8c4.6,0,7.7,2.7,9.3,7.9L236.4,327.1z"/>
		<path fill="#21224A" d="M270.6,344.6l0.3-42.3c0-2.7,0.8-5,2.4-6.8c1.6-1.8,3.7-2.7,6.4-2.7c2.7,0,4.9,0.9,6.5,2.8
			c1.6,1.8,2.4,4.1,2.3,6.9l-0.2,42.3c0,2.8-0.8,5.1-2.4,6.9c-1.6,1.8-3.8,2.7-6.5,2.7c-2.7,0-4.8-1-6.4-2.9
			C271.4,349.6,270.6,347.3,270.6,344.6z"/>
		<path fill="#21224A" d="M323.5,299c2.5-2.3,5-3.9,7.4-4.9c2.5-1,5.4-1.5,8.7-1.5c6.2,0,11.4,1.8,15.5,5.3c2.5,2.1,4.1,4.5,5,7.2
			c0.9,2.6,1.3,5.8,1.3,9.6l-0.2,30.4c0,2.8-0.8,5.1-2.4,6.9c-1.6,1.8-3.8,2.8-6.5,2.7c-2.7,0-4.8-1-6.4-2.9
			c-1.6-1.9-2.3-4.2-2.3-6.9l0.2-26.3c0-3.1-0.8-5.8-2.6-7.9c-1.8-2.1-4.2-3.2-7.4-3.2c-1.8,0-3.5,0.5-5,1.4
			c-1.5,0.9-2.7,2.2-3.5,3.8c-0.9,1.6-1.3,3.2-1.3,5l-0.2,27c0,2.8-0.8,5.1-2.4,6.9c-1.6,1.8-3.8,2.8-6.5,2.7c-2.7,0-4.8-1-6.4-2.9
			c-1.6-1.9-2.3-4.2-2.3-6.9l0.3-41.7c0-2.8,0.8-5.1,2.2-7.1c1.5-1.9,3.6-3,6.3-3.1C319,293,321.9,295,323.5,299z"/>
		<path fill="#21224A" d="M416.5,299.9c2.5-4.3,5.3-6.5,8.6-6.4c2.7,0,4.7,0.9,6.2,2.8c1.5,1.8,2.3,4.1,2.3,6.7l-0.3,46
			c0,4.7-0.8,8.9-2.2,12.6c-1.4,3.7-3.5,6.9-6.2,9.5c-2.7,2.6-6,4.6-9.8,5.9c-3.8,1.4-8.1,2-12.8,2c-8.3-0.1-15.5-1.8-21.5-5.1
			c-3.6-1.9-5.4-4.5-5.4-7.8c0-1.9,0.8-3.6,2.2-5.1c1.5-1.5,3.2-2.3,5.2-2.4c1.3,0,2.5,0.2,3.6,0.5l4.9,1.7
			c3.8,1.4,7.4,2.1,10.7,2.1c6,0,10.1-1.8,12.3-5.6c1-1.8,1.6-5,2-9.6c-2.1,2.6-4.3,4.6-6.5,5.9c-2.2,1.3-4.9,1.9-8.2,1.9
			c-3.7,0-7.2-0.8-10.6-2.3c-3.4-1.5-6.4-3.6-8.8-6.3c-5.1-5.6-7.6-13.5-7.6-23.5c0-4.4,0.9-8.6,2.6-12.7c1.7-4.1,4.1-7.6,7.3-10.5
			c2.3-2.2,4.9-3.9,7.9-5.2c3-1.3,6-1.9,9.1-1.9c3.2,0,6,0.6,8.3,1.7C411.9,295.7,414.2,297.5,416.5,299.9z M387.5,323.5
			c0,5.2,1.1,9.2,3.4,11.8c2.2,2.6,5,3.9,8.4,3.9c3.7,0,6.7-1.5,8.8-4.6c2.1-3.1,3.2-6.5,3.2-10.4c0-2.5-0.5-4.9-1.4-7.2
			c-1-2.3-2.4-4.2-4.3-5.6c-1.9-1.5-4.2-2.2-6.8-2.2c-3.5,0-6.2,1.4-8.2,4.4C388.5,316.5,387.5,319.8,387.5,323.5z"/>
	</g>
	<g>
		<path fill="#BDBBBB" d="M285.1,69.6c0,5.1-4.1,9.1-9.2,9.1c-5.1,0-9.1-4.1-9.1-9.1c0-5,4.1-9.1,9.1-9.1
			C281,60.5,285.1,64.5,285.1,69.6z"/>
		<path fill="#BDBBBB" d="M393.9,90.5c0,5-4.1,9.1-9.2,9.1s-9.1-4.1-9.1-9.1c0-5.1,4.1-9.2,9.1-9.2S393.9,85.4,393.9,90.5z"/>
		<circle fill="#BDBBBB" cx="473.7" cy="185.5" r="9.2"/>
		<path fill="#BDBBBB" d="M513.6,300.2c0,5.1-4.1,9.2-9.1,9.2c-5.1,0-9.1-4.1-9.1-9.2c0-5,4.1-9.1,9.1-9.1
			C509.5,291,513.6,295.1,513.6,300.2z"/>
		<path fill="#BDBBBB" d="M487.1,393c0,5.1-4.1,9.2-9.2,9.2c-5,0-9.1-4.1-9.1-9.2c0-5,4.1-9.1,9.1-9.1
			C483,383.9,487.1,388,487.1,393z"/>
		<path fill="#BDBBBB" d="M393.9,481.3c0,5.1-4.1,9.1-9.2,9.1s-9.1-4.1-9.1-9.1c0-5.1,4.1-9.2,9.1-9.2S393.9,476.2,393.9,481.3z"/>
		<path fill="#BDBBBB" d="M285.1,508.7c0,5-4.1,9.2-9.2,9.2c-5.1,0-9.1-4.1-9.1-9.2c0-5.1,4.1-9.1,9.1-9.1
			C281,499.6,285.1,503.7,285.1,508.7z"/>
		<path fill="#BDBBBB" d="M165.2,472.1c0,5.1-4.1,9.2-9.1,9.2c-5,0-9.1-4.1-9.1-9.2c0-5.1,4.1-9.1,9.1-9.1
			C161.1,463,165.2,467.1,165.2,472.1z"/>
		<path fill="#BDBBBB" d="M86.3,393.2c0,5.1-4.1,9.2-9.1,9.2c-5.1,0-9.2-4.1-9.2-9.2c0-5.1,4.1-9.1,9.2-9.1
			C82.2,384.1,86.3,388.2,86.3,393.2z"/>
		<path fill="#BDBBBB" d="M66.2,300.2c0,5.1-4.1,9.2-9.1,9.2c-5.1,0-9.2-4.1-9.2-9.2c0-5,4.1-9.1,9.2-9.1
			C62.1,291,66.2,295.1,66.2,300.2z"/>
		<path fill="#BDBBBB" d="M97.4,185.4c0,5.1-4.1,9.1-9.1,9.1c-5.1,0-9.1-4.1-9.1-9.1c0-5.1,4.1-9.1,9.1-9.1
			C93.4,176.2,97.4,180.3,97.4,185.4z"/>
		<path fill="#BDBBBB" d="M165.2,94.5c0,5.1-4.1,9.1-9.1,9.1c-5,0-9.1-4.1-9.1-9.1c0-5.1,4.1-9.2,9.1-9.2
			C161.1,85.3,165.2,89.4,165.2,94.5z"/>
	</g>
	<line fill="none" x1="280" y1="264.6" x2="280" y2="264"/>
	<path fill="#EB0B27" d="M278.8,284.9c-3.2,0-6.4-1.3-8.7-3.9l-40.8-45.1c-4.4-4.8-4-12.2,0.8-16.6c4.8-4.4,12.2-4,16.6,0.8
		l40.8,45.1c4.4,4.8,4,12.2-0.8,16.6C284.5,283.8,281.6,284.9,278.8,284.9z"/>
	<path fill="#5EC8DD" d="M279.1,286c-2.8,0-5.6-1-7.9-3c-4.8-4.4-5.2-11.8-0.8-16.6l40.8-45.1c4.3-4.8,11.8-5.2,16.6-0.8
		c4.8,4.4,5.2,11.8,0.8,16.6l-40.8,45.1C285.5,284.7,282.3,286,279.1,286z"/>
</g>
</svg>
