<?xml version="1.0" encoding="utf-8"?>
<!-- Generator: Adobe Illustrator 18.0.0, SVG Export Plug-In . SVG Version: 6.00 Build 0)  -->
<!DOCTYPE svg PUBLIC "-//W3C//DTD SVG 1.1//EN" "http://www.w3.org/Graphics/SVG/1.1/DTD/svg11.dtd">
<svg version="1.1" id="Layer_1" xmlns="http://www.w3.org/2000/svg" xmlns:xlink="http://www.w3.org/1999/xlink" x="0px" y="0px"
	 viewBox="0 0 540 720" enable-background="new 0 0 540 720" xml:space="preserve">
<g>
	<path fill="#7673C0" d="M335.9,405.6l-24.5-17.1l-3.3-19.7c-0.1-0.5-0.2-1-0.4-1.4l-7.3-27.4l13.3,0.8l8.8,12.6
		c1.1,1.6,2.9,2.4,4.7,2.4c1.1,0,2.2-0.3,3.2-1c2.6-1.8,3.2-5.3,1.4-7.9L321.4,332c-1-1.4-2.6-2.3-4.3-2.4l-17.4-1
		c-0.8,0-1.5,0.1-2.2,0.3l0,0l-25.3,11.3l0,0H258l-6.3-12c-1.5-2.8-4.9-3.8-7.6-2.4c-2.8,1.4-3.8,4.9-2.4,7.6l7.9,15
		c1,1.9,2.9,3,5,3h19.9l4.6,22.8l-10.9,2.2c-2.1,0.4-3.9,1.9-4.8,3.9l-12.9,30.5c-1.4,3.4,0.2,7.2,3.5,8.6c0.8,0.4,1.7,0.5,2.6,0.5
		c2.6,0,5-1.5,6.1-4l11.5-27.3l23-4.7l1.6,9.3c0.3,1.7,1.3,3.3,2.7,4.3l26.7,18.7c1.2,0.8,2.5,1.2,3.8,1.2c2.1,0,4.1-1,5.4-2.8
		C339.7,411.8,338.9,407.6,335.9,405.6z"/>
	<path fill="#7673C0" d="M275.1,335.7c9.7,0,17.5-7.9,17.5-17.5c0-9.7-7.9-17.5-17.5-17.5c-9.7,0-17.5,7.9-17.5,17.5
		C257.5,327.9,265.4,335.7,275.1,335.7z"/>
	<circle fill="#7673C0" cx="220.5" cy="335.7" r="9.1"/>
	<path fill="#7673C0" d="M254.6,389.5c1.2-1.7,0.7-3.9-0.9-5.1l-13.5-9.4l-1.8-10.9c0-0.3-0.1-0.5-0.2-0.8l-4.6-17.3l-0.2-0.9
		c-0.5-1-1.6-1.8-2.8-1.8c-0.4,0-0.8,0.1-1.2,0.2l-0.1,0l-10.7,4.8l0,0h-7.9l-3.5-6.6c-0.8-1.5-2.7-2.1-4.2-1.3
		c-1.5,0.8-2.1,2.7-1.3,4.2l4.3,8.3c0.5,1,1.6,1.7,2.8,1.7h11l2.6,12.6l-6,1.2c-1.2,0.2-2.2,1-2.6,2.2l-7.1,16.9
		c-0.8,1.9,0.1,4,1.9,4.8c0.5,0.2,0.9,0.3,1.4,0.3c1.4,0,2.8-0.8,3.4-2.2l6.4-15.1l12.7-2.6l0.9,5.2c0.2,1,0.7,1.8,1.5,2.4
		l14.8,10.3c0.6,0.4,1.4,0.7,2.1,0.7C252.8,391.1,253.9,390.6,254.6,389.5z"/>
</g>
</svg>
