<?xml version="1.0" encoding="utf-8"?>
<!-- Generator: Adobe Illustrator 18.0.0, SVG Export Plug-In . SVG Version: 6.00 Build 0)  -->
<!DOCTYPE svg PUBLIC "-//W3C//DTD SVG 1.1//EN" "http://www.w3.org/Graphics/SVG/1.1/DTD/svg11.dtd">
<svg version="1.1" id="Layer_1" xmlns="http://www.w3.org/2000/svg" xmlns:xlink="http://www.w3.org/1999/xlink" x="0px" y="0px"
	 viewBox="0 0 540 720" enable-background="new 0 0 540 720" xml:space="preserve">
<g>
	<path fill-rule="evenodd" clip-rule="evenodd" fill="#7673C0" d="M181.2,344.2c1.3-2.1,3.3-2.6,5.6-2.3c2.9,0.4,4.7-0.5,6.4-3.3
		c4.6-7.7,11.8-11.5,20.7-11.5c25.3-0.1,50.6,0,75.8,0c12.9,0,25.8-0.4,38.7,0c9.4,0.3,16.6,4.9,21.1,13.4c0.6,1.1,1.2,1.5,2.4,1.4
		c1.2-0.1,2.5,0.1,3.7,0c2-0.2,3.7,0.4,4.9,2c0,1.2,0,2.3,0,3.5c-1,1.1-2,2.1-3.7,2c-1.4,0-2.8,0-4.3,0c0.2,1.6,0.3,3.1,0.4,4.6
		c0.5,7.7-0.1,15.2-3.3,22.3c-4.5,10.2-12.6,15.6-23.5,17c-11,1.4-20.6-2.3-29.4-8.4c-9.2-6.4-16.5-14.5-19.7-25.5
		c-0.9-3-1-6.3-1.3-9.5c-0.1-1.3-0.5-2.2-1.8-2.2c-2.2-0.1-4.4,0-6.6,0.1c-0.9,0-1.4,0.5-1.4,1.6c-0.3,15.8-8.9,26.8-21.1,35.6
		c-7.6,5.5-16.1,8.9-25.7,8.7c-15.9-0.3-27.1-10.1-29.8-25.7c-1-6-1-12.1-0.3-18.4c-2.8-0.3-6,0.8-7.8-2.5
		C181.2,346.1,181.2,345.1,181.2,344.2z M311.2,334.4c-5.4,0-10.7,0.1-16.1,0c-2.5-0.1-4.7,0.7-6.3,2.4c-1.6,1.8-3.3,3.9-4.2,6.1
		c-1.9,4.6-1.7,9.3-0.5,14.1c3.7,15.5,23,31.4,42,28.9c9.7-1.3,15.7-6.1,18.2-15.2c2-7.2,2.1-14.5,0.5-21.7
		c-2.5-10.9-10.9-15-18.5-14.6C321.2,334.6,316.2,334.4,311.2,334.4z M230.4,334.4C230.4,334.4,230.4,334.4,230.4,334.4
		c-5.4,0-10.9,0-16.3,0c-7.5,0-14.2,4.8-16.4,11.9c-2.7,8.5-2.5,17.2,0,25.7c1.8,6.1,5.7,10.4,11.8,12.5c4.9,1.7,10.1,2.2,15.2,1.2
		c13.1-2.5,23-9.7,29.8-21.2c2.4-4.1,3.8-8.6,3.8-13.5c0.1-5.8-1.3-11-6.1-14.7c-1.6-1.2-3.2-1.9-5.3-1.8
		C241.4,334.5,235.9,334.4,230.4,334.4z M261.2,334.5c1.2,2.3,2.3,4.5,3.5,6.7c4.1-1.7,8.2-1.6,12.2,0c1.2-2.3,2.3-4.4,3.5-6.6
		C273.9,334.5,267.6,334.5,261.2,334.5z"/>
	<path fill-rule="evenodd" clip-rule="evenodd" fill="#7673C0" d="M311.2,334.4c5,0,10,0.2,15.1,0c7.5-0.3,16,3.8,18.5,14.6
		c1.6,7.2,1.5,14.5-0.5,21.7c-2.5,9.1-8.5,13.9-18.2,15.2c-19,2.5-38.3-13.4-42-28.9c-1.2-4.8-1.4-9.5,0.5-14.1
		c1-2.2,2.6-4.3,4.2-6.1c1.6-1.8,3.8-2.5,6.3-2.4C300.4,334.5,305.8,334.4,311.2,334.4z"/>
	<path fill-rule="evenodd" clip-rule="evenodd" fill="#7673C0" d="M230.4,334.4c5.5,0,11,0.1,16.5,0c2.1,0,3.8,0.6,5.3,1.8
		c4.8,3.7,6.2,8.9,6.1,14.7c0,4.8-1.4,9.4-3.8,13.5c-6.8,11.5-16.6,18.7-29.8,21.2c-5.1,1-10.3,0.5-15.2-1.2
		c-6.1-2.1-10-6.4-11.8-12.5c-2.5-8.5-2.7-17.1,0-25.7c2.2-7.1,9-11.9,16.4-11.9C219.6,334.4,225,334.4,230.4,334.4
		C230.4,334.4,230.4,334.4,230.4,334.4z M202.9,364c0.3,1.7,1.1,2.9,2.5,3.5c1.6,0.7,3.1,0.3,4.3-0.9c5.8-5.8,11.6-11.5,17.3-17.3
		c1.7-1.7,1.6-4,0.1-5.5c-1.6-1.5-3.7-1.5-5.4,0.2c-5.8,5.7-11.5,11.4-17.2,17.2C203.7,362,203.4,363.1,202.9,364z M218.4,341.8
		c0-2.2-0.7-3.4-2.2-4c-1.6-0.7-3.1-0.3-4.3,0.9c-3.6,3.6-7.3,7.2-10.9,10.9c-1.8,1.8-1.8,4-0.2,5.6c1.5,1.5,3.8,1.4,5.5-0.3
		c3.7-3.6,7.3-7.2,10.9-10.9C217.7,343.3,218.1,342.3,218.4,341.8z"/>
	<path fill-rule="evenodd" clip-rule="evenodd" fill="#FFFFFF" d="M202.9,364c0.5-0.9,0.9-2,1.6-2.7c5.7-5.8,11.4-11.5,17.2-17.2
		c1.7-1.7,3.9-1.8,5.4-0.2c1.5,1.5,1.5,3.8-0.1,5.5c-5.8,5.8-11.5,11.5-17.3,17.3c-1.2,1.2-2.7,1.6-4.3,0.9
		C203.9,366.9,203.2,365.8,202.9,364z"/>
	<path fill-rule="evenodd" clip-rule="evenodd" fill="#FFFFFF" d="M218.4,341.8c-0.3,0.4-0.6,1.5-1.3,2.2
		c-3.6,3.7-7.2,7.3-10.9,10.9c-1.7,1.7-3.9,1.7-5.5,0.3c-1.6-1.5-1.5-3.8,0.2-5.6c3.6-3.6,7.3-7.3,10.9-10.9
		c1.2-1.2,2.7-1.6,4.3-0.9C217.6,338.4,218.3,339.6,218.4,341.8z"/>
</g>
</svg>
