<?xml version="1.0" encoding="utf-8"?>
<!-- Generator: Adobe Illustrator 18.0.0, SVG Export Plug-In . SVG Version: 6.00 Build 0)  -->
<!DOCTYPE svg PUBLIC "-//W3C//DTD SVG 1.1//EN" "http://www.w3.org/Graphics/SVG/1.1/DTD/svg11.dtd">
<svg version="1.1" id="Layer_1" xmlns="http://www.w3.org/2000/svg" xmlns:xlink="http://www.w3.org/1999/xlink" x="0px" y="0px"
	 viewBox="0 0 540 720" enable-background="new 0 0 540 720" xml:space="preserve">
<g>
	<g>
		<g>
			<g>
				<path fill="#7673C0" d="M310.5,360.6c0,21.9-17.7,39.6-39.6,39.6c-21.9,0-39.6-17.7-39.6-39.6c0-21.9,17.7-39.6,39.6-39.6
					C292.8,321,310.5,338.7,310.5,360.6z"/>
				<path fill="#7673C0" d="M276,307.5c0,3.2-2.3,5.8-5.1,5.8l0,0c-2.8,0-5.1-2.6-5.1-5.8v-13.8c0-3.2,2.3-5.8,5.1-5.8l0,0
					c2.8,0,5.1,2.6,5.1,5.8V307.5z"/>
				<path fill="#7673C0" d="M276,427.3c0,3.2-2.3,5.8-5.1,5.8l0,0c-2.8,0-5.1-2.6-5.1-5.8v-13.8c0-3.2,2.3-5.8,5.1-5.8l0,0
					c2.8,0,5.1,2.6,5.1,5.8V427.3z"/>
				<path fill="#7673C0" d="M323.9,366.1c-3.2,0-5.8-2.3-5.8-5.1l0,0c0-2.8,2.6-5.1,5.8-5.1h13.8c3.2,0,5.8,2.3,5.8,5.1l0,0
					c0,2.8-2.6,5.1-5.8,5.1H323.9z"/>
				<path fill="#7673C0" d="M204.1,366.1c-3.2,0-5.8-2.3-5.8-5.1l0,0c0-2.8,2.6-5.1,5.8-5.1h13.8c3.2,0,5.8,2.3,5.8,5.1l0,0
					c0,2.8-2.6,5.1-5.8,5.1H204.1z"/>
				<path fill="#7673C0" d="M313.9,329c-2.3,2.3-5.8,2.5-7.7,0.5l0,0c-2-2-1.8-5.5,0.5-7.8l9.8-9.7c2.3-2.3,5.8-2.5,7.8-0.5l0,0
					c2,2,1.8,5.5-0.5,7.8L313.9,329z"/>
				<path fill="#7673C0" d="M228.8,413.4c-2.3,2.3-5.8,2.5-7.8,0.5l0,0c-2-2-1.8-5.5,0.5-7.7l9.8-9.7c2.3-2.3,5.8-2.5,7.8-0.5l0,0
					c2,2,1.7,5.5-0.5,7.8L228.8,413.4z"/>
				<path fill="#7673C0" d="M304.7,404c-2.3-2.3-2.5-5.8-0.5-7.8l0,0c2-2,5.5-1.8,7.8,0.5l9.8,9.8c2.3,2.3,2.5,5.7,0.5,7.8l0,0
					c-2,2-5.5,1.8-7.8-0.5L304.7,404z"/>
				<path fill="#7673C0" d="M220,319.3c-2.3-2.3-2.5-5.8-0.5-7.8l0,0c2-2,5.5-1.8,7.8,0.5l9.8,9.8c2.3,2.3,2.5,5.7,0.5,7.8l0,0
					c-2,2-5.5,1.8-7.8-0.5L220,319.3z"/>
			</g>
		</g>
	</g>
	<g>
		<path fill="#FFFFFF" d="M269.1,348.6v13.6c0,2-0.2,3.7-0.5,5c-0.3,1.4-1,2.7-2,4c-1.3,1.6-2.9,2.9-4.8,3.7c-1.9,0.9-3.9,1.3-6,1.3
			c-1.8,0-3.5-0.3-5.1-0.9c-1.6-0.6-3-1.4-4.3-2.5c-1.2-1.1-2.2-2.4-2.9-3.9c-0.7-1.5-1.1-3.2-1.1-5v-15.4c0-1.1,0.3-2,0.9-2.8
			c0.6-0.7,1.5-1.1,2.6-1.1c1.1,0,1.9,0.4,2.5,1.1c0.6,0.7,0.9,1.7,0.9,2.8V363c0,1.9,0.5,3.5,1.5,4.7c0.6,0.7,1.3,1.2,2.1,1.6
			c0.9,0.4,1.8,0.6,2.6,0.6c0.9,0,1.9-0.2,2.8-0.6c0.9-0.4,1.6-1,2.2-1.7c0.9-1.2,1.3-2.9,1.3-5.2v-13.6c0-1.1,0.3-2,0.9-2.8
			c0.6-0.7,1.5-1.1,2.5-1.1c1.1,0,1.9,0.4,2.6,1.1C268.8,346.6,269.1,347.5,269.1,348.6z"/>
		<path fill="#FFFFFF" d="M286,363.9l6.2-16.6c0.3-0.7,0.7-1.4,1.3-1.9c0.6-0.5,1.2-0.8,1.9-0.8c0.6,0,1.2,0.1,1.8,0.4
			c0.6,0.2,1.1,0.6,1.4,1.1c0.4,0.5,0.6,1,0.6,1.6c0,0.8-0.1,1.5-0.4,2.2l-9.3,23.5c-0.7,1.9-1.8,2.8-3.3,2.8
			c-0.8,0-1.5-0.2-2.1-0.6c-0.6-0.4-1.1-1-1.3-1.7l-9.5-23.9c-0.2-0.8-0.4-1.5-0.4-2.2c0-0.9,0.4-1.6,1.2-2.2
			c0.8-0.5,1.7-0.8,2.7-0.8c0.7,0,1.3,0.3,1.8,0.8c0.6,0.5,1,1.1,1.2,1.9L286,363.9z"/>
	</g>
</g>
</svg>
